<svg width="364" height="481" viewBox="0 0 364 481" fill="none" xmlns="http://www.w3.org/2000/svg">
<g clip-path="url(#clip0_1173_1290)">
<path d="M283.618 193.534C283.573 190.885 283.881 188.206 283.129 185.58C282.671 183.984 282.423 183.691 280.762 183.661C280.424 183.661 280.078 183.661 279.74 183.691C272.863 184.187 266.084 185.346 259.282 186.4C256.997 186.754 254.727 187.235 252.443 187.596C251.451 187.754 250.428 187.762 249.196 187.852C248.895 193.579 250.256 199.111 250.564 204.838C243.867 206.696 237.456 208.48 230.888 210.309C230.234 208.48 230.249 206.689 230.392 204.755C230.948 204.702 231.421 204.717 231.865 204.604C232.902 204.333 233.992 204.13 234.939 203.671C236.269 203.024 236.802 200.826 236.231 199.096C235.585 197.139 235.044 196.823 232.864 197.094C232.669 197.116 232.466 197.094 232.12 197.094C230.67 194.798 228.573 193.316 225.612 193.248C225.394 191.495 225.101 189.952 225.048 188.394C225.025 187.709 225.612 187.017 225.657 186.317C225.694 185.79 225.424 184.91 225.071 184.774C224.454 184.534 223.597 184.586 222.981 184.85C222.718 184.962 222.568 186.046 222.786 186.468C223.988 188.733 223.537 191.239 224.266 193.722C221.41 194.37 220.704 196.409 220.711 198.742C218.164 199.826 217.637 200.541 217.75 202.61C217.901 205.477 219.719 206.892 222.485 206.335C223.515 206.125 224.559 206.012 225.679 205.846C225.89 207.396 225.957 208.698 226.25 209.948C226.799 212.258 225.815 214.049 224.484 215.75C220.982 220.197 217.292 224.547 214.789 229.665C213.091 233.134 210.498 235.753 207.882 238.447C206.281 240.103 204.613 241.841 203.568 243.858C201.667 247.53 199.307 250.819 196.661 253.957C193.76 257.397 190.889 260.866 188.093 264.388C186.327 266.615 184.711 268.978 182.9 271.454C182.261 270.882 181.682 270.363 181.292 270.017C184.832 259.647 188.281 249.54 191.731 239.448C193.429 239.726 194.895 240.042 196.376 240.17C197.15 240.238 198.059 240.185 198.721 239.832C201.328 238.455 203.057 236.347 203.493 233.322C203.621 232.442 203.876 231.576 203.944 230.696C204.199 227.445 204.628 224.239 203.643 220.95C202.802 218.143 201.569 215.644 199.667 213.387C200.735 211.731 201.794 210.196 203.786 209.865C204.004 208.984 203.831 208.367 203.065 208.089C201.975 207.69 200.9 206.892 199.54 207.765C199.885 208.405 200.186 208.969 200.532 209.609C199.788 210.587 199.074 211.535 198.375 212.454C197.578 211.964 197.029 211.535 196.406 211.257C193.287 209.857 189.311 209.157 186.38 213.281C184.148 216.42 183.005 220.032 183.419 223.893C183.855 227.994 184.899 231.967 187.462 235.339C187.988 236.031 188.026 236.633 187.748 237.409C185.831 242.744 184.088 248.14 182.013 253.408C180.345 257.66 178.285 261.754 176.437 265.931C176.151 266.578 175.775 266.916 175.099 266.992C174.565 267.052 174.039 267.187 173.385 267.315C173.385 263.831 173.318 260.437 173.4 257.035C173.588 248.908 173.866 240.78 174.069 232.652C174.182 228.077 174.174 223.494 174.302 218.918C174.505 211.678 174.761 204.439 175.024 197.199C175.234 191.322 175.384 185.444 175.753 179.582C176.098 174.141 176.527 168.715 176.609 163.259C176.685 158.48 176.895 153.701 177.03 148.915C177.286 139.831 177.647 130.748 177.752 121.657C177.895 109.353 177.872 97.0557 177.849 84.7514C177.834 78.5502 177.684 72.3491 177.571 66.148C177.481 61.4445 177.368 56.741 177.241 52.03C177.151 48.6133 176.895 45.2042 176.925 41.7876C176.985 35.5037 177.278 29.2123 177.323 22.9284C177.368 16.9982 177.323 11.0605 177.083 5.13784C176.985 2.81242 176.978 -0.024738 175.79 0.00536447C175.49 0.170928 175.189 0.344017 174.888 0.517106C174.948 0.351543 174.986 0.193505 175.039 0.0279413C173.445 0.073095 160.007 1.6008 159.541 1.82656C158.76 2.20285 162.247 2.79737 161.322 3.81333C162.164 3.75312 162.991 3.68539 163.976 3.61766C164.111 4.89702 164.291 6.02586 164.336 7.1547C164.449 9.93918 164.998 12.7161 164.449 15.5157C164.321 16.1779 164.404 16.8778 164.404 17.5551C164.411 21.4383 164.426 25.3291 164.434 29.2123C164.434 29.7617 164.344 30.3186 164.426 30.8453C164.787 33.0579 164.329 35.1876 163.945 37.3475C163.78 38.2807 163.78 39.2364 163.72 40.1846C163.697 40.5233 163.758 40.8695 163.72 41.2006C162.946 47.1458 163.299 53.1739 162.337 59.104C161.924 61.6628 161.488 64.2215 161.12 66.7877C160.887 68.4057 160.796 70.0463 160.578 71.6643C160.278 73.8768 159.94 76.0894 159.579 78.2944C159.338 79.7694 158.978 81.2294 158.76 82.7044C158.294 85.8727 157.813 89.041 157.459 92.2168C156.896 97.2439 156.385 102.271 155.934 107.306C155.641 110.496 155.475 113.702 155.272 116.901C154.994 121.258 154.686 125.615 154.498 129.98C154.31 134.345 154.183 138.71 154.153 143.082C154.107 150.533 154.228 157.983 154.16 165.434C154.092 172.824 153.198 180.131 151.695 187.363C151.221 189.628 150.898 191.931 150.635 194.234C150.124 198.644 149.651 203.054 149.267 207.479C148.914 211.49 148.816 215.517 148.396 219.52C148.042 222.869 147.854 226.203 148.396 229.522C149.463 236.107 150.282 242.737 153.085 248.923C154.228 251.444 154.844 254.221 155.611 256.907C156.67 260.633 158.654 263.899 160.556 267.21C160.954 267.902 161.383 268.58 161.909 269.445C161.345 269.483 161.014 269.596 160.721 269.52C156.467 268.392 152.108 268.264 147.742 268.038C145.239 267.902 142.759 267.27 140.264 266.962C137.828 266.661 135.378 266.533 132.943 266.239C131.478 266.066 130.042 265.712 128.434 265.419C128.855 262.589 129.208 260.031 129.606 257.487C131.636 244.671 133.635 231.847 135.739 219.038C137.31 209.466 139.099 199.938 140.662 190.366C142.706 177.896 144.645 165.403 146.599 152.918C147.982 144.083 149.395 135.248 150.643 126.391C151.274 121.928 151.59 117.42 152.003 112.935C152.882 103.407 153.762 93.8799 154.596 84.3525C154.904 80.8155 155.047 77.2634 155.325 73.7188C155.783 67.8639 156.317 62.0165 156.776 56.1615C157.151 51.3978 157.467 46.619 157.79 41.8553C158.188 36.0079 158.534 30.153 158.978 24.3056C159.278 20.302 159.729 16.3059 160.09 12.3022C160.293 10.0596 161.112 6.05596 161.307 3.81333C161.345 3.422 162.63 2.53397 162.728 2.07491C162.021 2.90273 160.293 0.690196 159.534 1.82656C159.489 2.97798 158.587 9.32208 158.482 10.1951C158.301 11.7303 157.843 18.1421 157.79 18.7818C157.136 27.0223 156.475 35.2629 155.813 43.5034C155.438 48.1994 155.084 52.8954 154.656 57.5914C154.13 63.3033 153.484 69.0078 152.988 74.7272C152.311 82.4861 151.77 90.2601 151.109 98.019C150.522 104.897 149.929 111.776 149.185 118.632C148.591 124.058 147.832 129.469 147.028 134.872C146.554 138.033 145.84 141.156 145.269 144.294C145.111 145.167 145.066 146.055 144.953 146.936C144.803 148.079 144.668 149.223 144.48 150.36C144.33 151.3 144.059 152.226 143.954 153.174C143.503 157.223 143.127 161.272 142.293 165.283C141.293 170.099 140.549 174.968 139.79 179.83C139.234 183.397 138.918 187.002 138.324 190.562C137.565 195.13 136.596 199.652 135.784 204.213C135.01 208.585 134.326 212.965 133.597 217.345C132.132 226.105 130.606 234.857 129.215 243.625C127.705 253.137 126.247 262.657 124.924 272.192C124.631 274.284 123.849 275.323 121.798 275.736C118.22 276.459 114.988 278.069 111.764 279.763C108.998 281.208 106.06 282.314 103.204 283.586C101.776 284.218 100.355 284.873 98.9573 285.557C96.8229 286.611 94.7035 287.702 92.584 288.786C91.5694 289.305 90.5698 289.847 89.6229 290.344C89.6003 291.721 90.3594 292.496 91.0809 293.324C91.6972 294.031 92.3586 294.769 92.7344 295.619C95.3273 301.527 99.1377 306.659 102.971 312.017C100.31 315.095 97.5519 318.294 94.7861 321.485C93.7565 322.666 92.7268 323.848 91.6822 325.014C90.9982 325.774 90.908 326.595 91.4041 327.46C91.7122 327.987 92.0354 328.521 92.4412 328.973C96.883 333.864 101.024 339.065 106.571 342.82C106.909 343.046 107.202 343.339 107.495 343.625C109.697 345.732 111.899 347.847 114.192 350.044C114.071 351.098 113.951 352.249 113.801 353.401C113.222 357.871 112.613 362.341 112.05 366.819C111.388 372.11 110.749 377.4 110.111 382.691C109.524 387.56 108.938 392.436 108.367 397.313C108.066 399.887 107.781 402.46 107.503 405.034C107.059 409.173 106.571 413.312 106.21 417.459C105.804 422.072 105.541 426.7 105.188 431.321C105.03 433.361 104.805 435.392 104.632 437.432C104.354 440.615 104.233 443.829 103.782 446.989C103.129 451.527 103.053 456.088 102.918 460.648C102.85 462.966 102.843 465.344 102.287 467.564C101.655 470.063 101.768 472.419 102.362 474.827C102.445 475.158 102.753 475.436 102.941 475.722C103.955 475.331 103.707 474.556 103.767 473.924C103.888 472.494 103.918 471.056 104.098 469.634C104.278 468.234 104.729 466.857 104.842 465.45C105.316 459.181 105.669 452.905 106.142 446.636C106.473 442.271 106.939 437.921 107.3 433.564C107.788 427.709 108.157 421.839 108.713 415.991C109.284 409.941 110.005 403.898 110.689 397.855C111.509 390.592 112.305 383.323 113.215 376.068C114.222 368.001 115.357 359.948 116.416 351.888C117.033 347.215 117.596 342.534 118.197 337.853C118.288 337.183 118.25 336.25 118.656 335.904C120.106 334.677 119.625 333.262 119.4 331.81C119.295 331.148 119.242 330.455 119.332 329.793C120.385 321.936 121.467 314.087 122.549 306.238C122.669 305.387 122.857 304.545 123.023 303.626C124.15 303.815 125.014 303.958 125.886 304.108C130.651 304.943 135.416 305.764 140.181 306.629C141.586 306.885 143.007 307.148 144.345 307.63C148.478 309.105 152.807 309.692 157.069 310.542C160.007 311.129 162.968 311.626 165.937 312.063C168.199 312.394 170.401 313.244 172.859 313.011C172.904 312.341 172.942 311.754 172.994 311.062C172.318 311.032 171.777 310.964 171.251 310.986C169.259 311.069 167.328 310.813 165.388 310.354C163.532 309.918 161.631 309.692 159.744 309.399C154.1 308.511 148.35 308.157 142.924 306.125C142.421 305.937 141.864 305.862 141.323 305.771C137.235 305.056 133.139 304.356 129.05 303.634C127.434 303.348 125.841 302.994 124.225 302.708C123.218 302.528 122.992 302.039 123.443 301.196C127.284 301.738 131.057 302.264 134.83 302.799C136.851 303.085 138.903 303.228 140.887 303.672C146.126 304.846 151.297 306.14 156.715 306.622C161.623 307.058 166.456 308.526 171.288 309.685C173.874 310.302 173.859 310.437 173.904 313.191C173.949 315.585 173.889 317.978 173.986 320.371C174.272 327.4 174.708 334.429 174.888 341.465C175.001 345.823 174.678 350.18 174.685 354.545C174.685 358.232 174.896 361.92 174.971 365.615C175.054 369.716 174.971 373.825 175.181 377.919C175.632 386.86 176.249 395.785 176.73 404.726C177.015 409.978 177.158 415.239 177.399 420.499C177.707 427.122 178.045 433.744 178.368 440.367C178.909 451.43 179.45 462.485 179.991 473.547C180.022 474.202 180.082 474.857 180.134 475.572C180.901 475.617 181.487 475.655 182.194 475.692C182.276 475.128 182.411 474.669 182.396 474.225C182.351 472.584 182.321 470.943 182.186 469.31C181.585 462.086 180.976 454.869 180.886 447.614C180.826 442.692 180.608 437.771 180.382 432.856C179.984 424.458 179.525 416.067 179.09 407.676C178.894 403.92 178.714 400.165 178.481 396.417C178.045 389.388 177.376 382.375 177.158 375.338C176.812 364.208 176.842 353.062 176.549 341.932C176.376 335.234 175.888 328.551 175.557 321.861C175.527 321.184 175.557 320.506 175.557 319.829C175.963 320.062 176.121 320.288 176.189 320.544C178.774 329.959 181.359 339.381 183.93 348.803C185.335 353.943 186.733 359.083 188.093 364.23C188.687 366.473 189.138 368.746 189.709 370.996C190.671 374.759 191.731 378.506 192.648 382.277C193.647 386.386 194.519 390.525 195.481 394.641C196.594 399.428 197.804 404.199 198.871 409C201.359 420.206 203.771 431.426 206.236 442.632C206.672 444.611 207.221 446.568 207.739 448.607C207.085 448.878 206.537 449.006 206.116 449.315C205.77 449.571 205.394 450.022 205.364 450.414C205.222 452.152 205.327 453.921 206.852 455.072C207.679 455.697 208.739 456.028 209.949 456.607C209.844 456.457 209.964 456.562 209.994 456.682C211.783 463.546 214.699 470.101 215.653 477.205C215.834 478.544 216.187 479.899 217.472 480.795C218.043 480.448 218.592 480.11 218.968 479.884C218.517 477.972 218.103 476.249 217.698 474.533C217.495 473.668 217.329 472.795 217.081 471.944C215.856 467.753 214.586 463.568 213.384 459.369C213.015 458.09 212.903 456.735 212.519 455.463C211.911 453.446 211.046 451.505 210.513 449.465C209.025 443.784 207.627 438.087 206.251 432.375C205.101 427.596 203.839 422.832 202.989 417.993C200.878 405.93 197.533 394.16 194.85 382.232C194.113 378.965 193.151 375.752 192.34 372.501C191.956 370.966 192.129 370.808 193.805 370.838C194.174 372.192 194.489 373.592 194.94 374.939C195.91 377.829 196.481 380.824 197.488 383.722C198.66 387.108 199.209 390.713 200.036 394.22C200.299 395.349 200.607 396.47 200.878 397.599C202.268 403.378 203.628 409.166 205.056 414.93C205.402 416.315 206.101 417.609 206.439 419.002C207.334 422.712 208.16 426.444 208.949 430.185C210.422 437.199 211.805 444.235 213.293 451.249C213.699 453.175 214.301 455.072 214.887 456.961C215.368 458.519 215.999 460.024 216.488 461.582C216.856 462.756 217.089 463.967 217.382 465.156C218.006 467.67 218.66 470.176 219.238 472.704C219.659 474.563 219.96 476.46 220.358 478.326C220.486 478.943 220.944 479.237 221.591 479.086C222.29 478.928 222.38 478.484 222.23 477.844C221.576 474.977 220.967 472.102 220.313 469.243C219.862 467.263 219.344 465.299 218.848 463.275C220.321 462.402 221.711 461.552 223.131 460.761C223.658 460.468 224.266 460.317 224.845 460.137C226.19 459.708 227.618 459.444 228.888 458.85C231.97 457.397 234.976 455.779 238.02 454.252C238.606 453.958 239.245 453.77 240.102 453.439C240.41 455.019 240.718 456.336 240.921 457.661C241.38 460.626 241.8 463.598 242.206 466.579C242.387 467.896 243.01 468.701 244.078 468.784C244.874 467.85 245.528 467.075 246.099 466.398C246.971 466.812 247.565 467.098 248.384 467.489C248.504 466.413 248.873 465.63 248.429 464.727C248.053 463.96 247.73 463.139 247.535 462.312C246.768 459.053 246.024 455.787 245.355 452.513C244.356 447.637 243.424 442.745 242.447 437.786C244.003 437.236 244.296 435.882 244.709 434.595C246.265 429.763 246.099 424.721 246.235 419.762C246.393 414.012 247.595 408.518 249.128 403.055C249.263 402.573 249.602 401.896 249.985 401.783C251.526 401.316 253.112 400.812 254.509 401.279C255.156 402.949 255.735 404.372 256.261 405.817C256.449 406.321 256.651 406.878 256.606 407.39C256.373 409.963 256.028 412.522 255.78 415.096C255.614 416.782 255.517 418.475 255.464 420.168C255.449 420.537 255.644 421.004 255.907 421.267C256.877 422.23 258.072 422.667 259.455 422.463C260.755 422.275 261.401 421.47 261.845 420.251C262.634 418.068 263.528 415.924 264.498 413.824C265.866 410.859 266.557 407.758 266.52 404.515C266.504 403.506 266.79 402.882 267.609 402.287C268.158 401.881 268.722 401.166 268.812 400.519C269.067 398.562 269.105 396.583 269.195 394.604C269.203 394.355 269.082 394.047 268.917 393.866C267.324 392.105 265.445 390.773 262.972 391.029C261.83 391.149 260.815 391.127 259.816 390.638C258.395 389.945 257.14 390.179 256.118 391.33C255.073 392.504 253.983 392.173 252.781 391.684C252.954 390.66 253.157 389.735 253.254 388.801C253.532 386.092 253.735 383.375 254.021 380.674C254.269 378.371 254.555 376.068 254.885 373.773C255.058 372.576 255.269 371.365 255.622 370.213C256.358 367.805 257.238 365.442 257.974 363.034C258.342 361.815 258.523 360.535 258.778 359.278C258.816 359.098 258.861 358.842 258.771 358.714C258.102 357.803 258.478 356.878 258.696 355.952C259.274 353.566 259.808 351.173 260.469 348.818C261.89 343.768 261.988 338.553 262.318 333.383C262.581 329.296 262.386 325.187 262.656 321.101C262.859 318.046 261.965 315.494 260.191 313.094C258.493 310.791 256.945 308.375 255.284 306.042C254.577 305.049 253.856 304.01 252.954 303.213C251.323 301.775 250.308 299.961 249.279 298.11C248.64 296.966 248.121 295.875 248.091 294.513C248.046 292.541 247.813 290.562 247.625 288.598C247.242 284.639 246.52 280.756 244.949 277.084C244.656 276.399 244.393 275.669 243.98 275.059C242.537 272.914 240.936 270.867 239.568 268.677C238.073 266.284 235.803 265.118 233.225 264.621C231.369 264.267 229.415 264.298 227.521 264.373C224.605 264.486 221.681 264.719 218.772 265.02C217.6 265.14 216.458 265.547 215.15 265.863C215.037 265.712 214.804 265.381 214.549 265.073C213.541 263.861 212.369 262.966 210.678 263.289C208.942 263.62 207.642 264.456 207.356 266.382C207.311 266.713 207.168 267.037 207.033 267.353C206.537 268.482 205.011 269.152 203.846 268.768C201.614 268.03 201.201 268.369 201.419 270.732C201.434 270.86 201.374 270.995 201.328 271.229C196.902 274.322 191.889 276.406 186.883 278.905C186.177 277.513 185.568 276.323 184.959 275.134C185.358 274.593 185.666 274.141 186.012 273.72C189.559 269.392 193.159 265.11 196.654 260.738C200.359 256.095 204.012 251.414 207.582 246.673C212.219 240.517 216.781 234.308 221.328 228.077C222.53 226.429 223.455 224.577 224.65 222.922C226.408 220.483 228.317 218.158 230.099 215.742C230.677 214.96 231.346 214.628 232.293 214.47C234.24 214.147 236.216 213.823 238.08 213.191C240.846 212.25 243.514 211.016 246.235 209.948C247.4 209.488 248.557 208.856 249.962 209.233C250.571 215.163 251.157 220.965 251.781 227.001C262.604 225.623 273.321 225.834 283.986 223.727C283.986 221.311 284.009 219.016 283.986 216.721C283.903 209.007 283.836 201.286 283.693 193.572L283.618 193.534ZM232.939 199.254C233.36 198.546 234.27 198.682 234.45 199.494C234.6 200.187 234.63 201.007 234.382 201.647C234.225 202.068 233.503 202.422 233 202.482C232.789 202.512 232.473 201.699 232.218 201.286C232.481 200.503 232.601 199.811 232.939 199.246V199.254ZM221.861 204.83C221.29 205.116 220.561 205.515 219.802 204.83C219.096 204.205 218.742 202.204 219.141 201.353C219.464 200.653 219.862 200.525 221.869 200.525V204.823L221.861 204.83ZM209.197 453.966C207.341 453.951 206.837 453.582 206.65 452.227C206.439 450.745 206.589 450.466 208.115 449.924C208.498 451.354 208.844 452.634 209.197 453.966ZM256.509 401.648C256.832 401.512 257.298 401.211 257.794 401.128C259.041 400.925 259.568 400.511 259.335 399.443C258.996 397.892 259.019 396.184 257.591 395.018C256.824 394.393 256.666 393.422 257.14 392.602C257.621 391.766 258.553 391.548 259.492 391.781C261.912 392.391 264.325 393.038 266.783 393.678C267.294 395.574 267.414 397.388 266.805 399.172C266.602 399.766 266.196 400.443 265.685 400.745C264.543 401.422 264.438 402.408 264.43 403.544C264.4 406.81 264.287 410.009 262.702 413.056C261.747 414.885 261.379 417.022 260.702 419.009C260.447 419.769 260.086 420.492 259.778 421.214C256.93 420.289 256.884 420.289 256.982 417.579C257.027 416.24 257.283 414.9 257.441 413.598C258.222 413.44 258.786 413.327 259.665 413.154C258.748 412.161 257.035 411.664 258.252 409.896C259.056 409.723 260.026 409.512 261.003 409.301C260.657 407.819 259.537 407.615 258.222 407.698C258.237 407.548 258.26 407.397 258.275 407.247C258.718 407.104 259.169 406.953 259.613 406.81C260.124 406.652 260.642 406.502 261.311 406.298C260.319 405.124 259.169 405.561 258.034 405.696C257.178 404.515 255.712 403.642 256.509 401.64V401.648ZM222.222 198.606C222.395 196.213 222.846 195.724 225.04 195.258C227.212 194.791 228.813 195.528 229.941 197.606C227.4 197.937 224.905 198.26 222.215 198.606H222.222ZM225.942 203.995C224.244 204.491 223.575 204.288 223.252 203.212C222.861 201.925 223.658 200.413 224.973 200.006C225.476 199.856 226.002 199.773 226.656 199.63C226.566 201.12 226.491 202.317 226.401 203.716C226.378 203.731 226.183 203.92 225.942 203.987V203.995ZM186.568 230.696C184.982 227.279 184.305 223.682 184.907 219.926C185.44 216.585 186.898 213.883 190.243 212.499C192.009 211.769 193.715 211.776 195.376 212.604C198.465 214.147 200.404 216.653 201.524 219.911C203.102 224.48 202.719 229.078 201.847 233.668C201.434 235.873 200.006 237.469 198.052 238.5C197.488 238.793 196.744 238.891 196.098 238.838C193.738 238.65 191.844 237.491 190.085 235.625C191.25 232.825 192.452 229.958 193.64 227.098C192.084 226.113 191.753 226.21 191.4 227.776C190.904 229.981 189.89 231.945 188.672 234.376C187.815 232.893 187.094 231.832 186.56 230.688L186.568 230.696ZM179.804 262.589C183.095 255.748 185.771 248.667 188.086 241.45C188.462 240.283 188.875 239.132 189.258 238.011C189.431 237.935 189.574 237.807 189.664 237.837C189.965 237.95 190.243 238.123 190.604 238.312C188.356 245.288 186.199 252.046 184.012 258.789C183.125 261.506 182.201 264.215 181.209 266.894C180.968 267.534 180.382 268.045 179.894 268.7C179.187 268.211 178.646 267.835 177.932 267.338C178.563 265.727 179.082 264.102 179.811 262.589H179.804ZM157.903 259.699C155.596 253.431 153.559 247.026 151.92 240.554C150.47 234.812 149.267 228.935 149.613 222.937C149.966 216.818 150.041 210.678 151.086 204.604C151.687 201.112 151.868 197.553 152.274 194.023C152.454 192.466 152.634 190.9 152.927 189.357C154.889 178.852 155.994 168.293 155.738 157.584C155.498 147.681 155.453 137.769 155.596 127.866C155.663 122.823 156.287 117.781 156.738 112.754C157.084 108.946 157.542 105.146 158.001 101.353C158.173 99.938 158.572 98.5533 158.737 97.131C159.391 91.5018 159.744 85.8275 160.684 80.2435C161.428 75.841 161.375 71.4009 161.924 67.0059C162.067 65.8545 162.172 64.6956 162.3 63.5442C162.953 57.5086 163.615 51.4806 164.254 45.445C164.644 41.7199 165.028 37.9872 165.358 34.2545C165.546 32.1473 165.659 30.0326 165.757 27.9179C165.847 25.8032 166.095 23.6659 165.885 21.5813C165.494 17.683 166.245 13.8149 165.915 9.93918C165.817 8.78024 165.682 7.62882 165.621 6.46987C165.576 5.54422 165.614 4.61104 165.614 3.46715C168.868 4.73898 171.611 2.59418 174.783 2.72211C174.873 5.25072 175.031 7.68902 175.046 10.1348C175.076 16.5617 175.084 22.9811 175.031 29.408C175.009 32.7569 174.723 36.0982 174.768 39.4471C174.843 44.6398 175.121 49.825 175.272 55.0176C175.309 56.4475 175.159 57.8774 175.166 59.3072C175.166 60.4662 175.324 61.6176 175.347 62.7765C175.452 67.8262 175.557 72.8835 175.632 77.9331C175.73 84.6987 175.888 91.4642 175.858 98.2297C175.82 106.907 175.64 115.591 175.475 124.268C175.332 131.99 175.151 139.711 174.941 147.432C174.806 152.354 174.588 157.268 174.4 162.182C174.227 166.758 174.212 171.349 173.821 175.902C173.197 183.126 173.024 190.366 172.852 197.606C172.611 207.78 172.168 217.955 171.875 228.129C171.626 236.867 171.634 245.611 171.198 254.334C170.965 258.977 170.875 263.605 170.98 268.249C171.018 269.987 169.973 270.935 168.259 270.664C166.914 270.454 165.576 270.152 164.284 269.746C163.758 269.581 163.216 269.099 162.923 268.61C161.187 265.682 159.075 262.868 157.918 259.714L157.903 259.699ZM168.598 272.689C168.117 272.907 167.921 273.072 167.778 273.035C167.553 272.975 167.365 272.779 167.162 272.643C167.267 272.531 167.373 272.32 167.47 272.32C167.696 272.335 167.914 272.448 168.598 272.681V272.689ZM128.103 267.075C133.417 267.767 138.535 268.459 143.653 269.099C145.953 269.385 148.26 269.573 150.56 269.821C153.333 270.13 156.099 270.446 158.865 270.785C159.744 270.89 160.608 271.168 161.48 271.199C163.231 271.259 164.637 271.883 165.689 273.313C166.005 273.75 166.403 274.126 166.749 274.502C165.569 276.85 165.546 276.873 163.171 276.482C159.346 275.849 155.535 275.127 151.702 274.57C148.809 274.149 145.885 273.93 142.969 273.622C142.699 273.592 142.413 273.607 142.158 273.524C138.182 272.252 134.086 272.358 129.997 272.41C129.524 272.41 129.043 272.365 128.577 272.29C128.246 272.237 127.938 272.094 127.374 271.913C127.615 270.318 127.855 268.745 128.111 267.075H128.103ZM135.393 282.758C134.401 282.758 134.356 282.058 134.266 281.373C133.98 279.153 133.695 276.941 133.394 274.645C134.183 274.261 134.724 274.254 134.822 275.007C135.145 277.422 135.416 279.838 135.679 282.261C135.694 282.412 135.499 282.585 135.393 282.758ZM136.032 286.122C135.957 286.483 135.16 286.686 134.694 286.965C134.537 286.852 134.379 286.739 134.221 286.619C134.281 285.595 134.341 284.564 134.424 283.27C135.649 284.113 136.28 284.97 136.032 286.114V286.122ZM138.279 287.642C140.564 287.047 142.939 286.814 145.66 286.355C145.472 287.484 145.344 288.206 145.231 288.929C144.78 291.894 144.345 294.859 143.879 297.817C143.661 299.194 143.51 299.292 142.188 299.194C142.052 299.186 141.917 299.171 141.782 299.149C137.964 298.501 134.146 297.862 130.335 297.207C130.215 297.185 130.117 297.057 129.817 296.838C130.208 296.131 130.613 295.386 131.027 294.641C131.493 293.805 131.966 292.985 132.425 292.142C134.77 287.845 133.71 288.824 138.279 287.634V287.642ZM137.971 285.836C137.43 282.02 136.912 278.333 136.34 274.261C137.813 274.502 138.941 274.705 140.068 274.871C143.368 275.353 146.667 275.812 149.959 276.308C151.965 276.609 153.965 276.978 155.813 277.287C155.904 278.378 155.934 279.183 156.039 279.981C156.137 280.703 156.317 281.418 156.452 282.118C150.274 283.909 144.239 285.392 137.971 285.843V285.836ZM157.046 285.324C157.347 287.612 157.7 289.892 158.061 292.376C154.318 293.196 150.635 294.001 146.622 294.874C146.682 294.009 146.704 293.339 146.787 292.684C147.013 290.931 147.283 289.185 147.509 287.431C147.606 286.709 147.809 286.122 148.613 285.911C150.515 285.399 152.401 284.85 154.295 284.346C154.686 284.24 155.1 284.255 155.505 284.188C156.407 284.052 156.918 284.361 157.046 285.324ZM146.254 296.899C149.403 295.597 156.137 294.076 158.436 294.174C158.887 296.5 159.338 298.87 159.819 301.369C155.054 300.729 150.507 300.112 145.78 299.472C145.96 298.486 146.118 297.644 146.254 296.899ZM159.654 293.602C162.63 293.008 165.328 292.473 168.447 291.849C169.74 295.649 170.95 299.224 172.265 303.092C171.431 303.243 170.86 303.499 170.334 303.423C167.989 303.092 165.659 302.626 163.314 302.302C162.082 302.129 161.353 301.632 161.112 300.345C160.699 298.163 160.18 295.995 159.662 293.61L159.654 293.602ZM159.459 292.097C159.023 289.463 158.609 287.063 158.249 284.647C158.211 284.376 158.609 284.052 158.602 283.759C158.587 282.773 158.527 281.787 158.384 280.809C158.256 279.943 157.993 279.1 157.768 278.137C159.286 277.799 160.571 278.197 161.864 278.513C164.968 279.281 164.877 279.311 165.576 282.336C166.08 284.526 166.847 286.649 167.478 288.808C167.606 289.253 167.688 289.712 167.816 290.291C165.073 290.878 162.427 291.45 159.459 292.09V292.097ZM126.931 274.374C128.291 274.374 129.486 274.389 130.689 274.374C131.515 274.367 132.011 274.743 132.026 275.563C132.056 277.656 132.034 279.74 132.034 282.073C130.11 282.224 128.118 282.382 125.668 282.577C126.134 279.552 126.54 276.956 126.931 274.374ZM125.495 283.985H132.049C132.402 286.731 132.778 289.501 130.839 292.029C129.696 293.527 128.772 295.19 127.615 296.989C126.292 296.575 125.217 296.236 124.007 295.86C124.157 291.826 124.841 288.033 125.488 283.985H125.495ZM101.565 307.803C100.438 306.11 99.2955 304.417 98.2659 302.656C96.9657 300.428 95.7782 298.133 94.5456 295.86C94.0646 294.972 93.5911 294.069 92.9899 292.933C93.8316 292.526 94.5982 292.15 95.4475 291.736C96.4546 293.542 97.3941 295.175 98.2885 296.838C99.9945 300.007 101.716 303.175 103.347 306.381C103.895 307.457 104.211 308.654 104.594 309.812C104.639 309.94 104.429 310.144 104.256 310.452C103.091 309.775 102.249 308.849 101.55 307.796L101.565 307.803ZM95.1544 329.77C95.3047 329.62 95.455 329.462 95.6053 329.311C96.9582 330.598 98.4914 331.75 99.6338 333.202C101.798 335.956 104.166 338.417 107.217 340.193C107.781 340.525 108.157 341.179 108.48 341.804C102.993 338.899 99.055 334.354 95.1544 329.77ZM110.629 344.077C110.359 343.836 110.088 343.587 109.818 343.347C109.863 343.279 109.915 343.211 109.96 343.136C110.261 343.362 110.562 343.58 110.862 343.806C110.787 343.896 110.704 343.986 110.622 344.077H110.629ZM113.906 347.629C113.26 346.959 112.621 346.289 111.975 345.627C112.087 345.514 112.192 345.394 112.305 345.281C112.974 345.92 113.643 346.553 114.312 347.192C114.177 347.343 114.041 347.486 113.906 347.636V347.629ZM116.191 334.85C115.559 337.778 115.334 340.788 114.936 343.761C114.906 344.009 114.838 344.257 114.733 344.799C114.034 344.287 113.455 343.964 112.997 343.505C111.839 342.361 110.802 341.089 109.592 340.005C108.487 339.019 107.18 338.267 106.045 337.304C104.805 336.25 103.482 335.219 102.535 333.917C100.776 331.501 98.4613 329.748 96.139 327.972C95.7632 327.686 95.2897 327.528 94.6884 327.219C98.6267 323.434 102.091 320.108 105.639 316.706C106.819 317.602 107.397 318.994 108.149 320.243C110.223 323.675 112.035 327.272 114.838 330.214C116.071 331.509 116.604 332.909 116.191 334.843V334.85ZM106.601 315.675C107.172 315.058 107.728 314.463 108.472 313.658C109.464 315.69 110.291 317.474 111.2 319.212C112.05 320.838 112.989 322.41 113.861 324.021C114.53 325.248 115.266 326.467 115.056 328.025C111.975 324.171 109.742 319.746 106.601 315.667V315.675ZM117.025 327.001C114.38 322.17 111.907 317.647 109.404 313.071C112.343 308.917 116.409 305.974 120.031 302.272C120.43 304.259 118.197 322.139 117.025 327.001ZM119.317 301.053C116.942 303.092 114.703 305.305 112.508 307.54C109.359 310.746 106.353 314.095 103.189 317.293C100.648 319.859 97.9728 322.29 95.3498 324.773C94.7636 325.323 94.1623 325.436 93.6287 324.683C96.0187 320.792 115.372 300.27 121.226 295.491C121.226 297.771 121.038 299.578 119.317 301.053ZM123.098 282.404C122.669 285.512 122.263 288.628 121.745 291.721C121.617 292.473 121.241 293.256 120.768 293.873C119.858 295.062 118.844 296.176 117.792 297.245C114.387 300.684 110.945 304.086 107.51 307.495C107.134 307.863 106.683 308.164 106.045 308.676C102.963 302.791 100.01 297.139 97.0408 291.473C105.443 287.243 114.334 284.451 123.113 280.937C123.113 281.531 123.165 281.983 123.105 282.419L123.098 282.404ZM122.542 279.326C119.114 280.816 115.657 282.246 112.192 283.653C107.661 285.497 103.114 287.318 98.559 289.125C96.6726 289.877 94.7711 290.592 92.8546 291.262C92.3961 291.427 91.855 291.36 91.3515 291.405C91.3214 291.269 91.2989 291.134 91.2688 290.998C95.1168 288.989 98.8446 286.679 102.843 285.053C106.886 283.413 110.877 281.712 114.695 279.597C117.468 278.062 120.535 277.4 123.541 276.549C124.037 278.37 123.977 278.709 122.542 279.326ZM170.882 307.148C167.606 305.741 164.073 306.238 160.676 305.726C156.783 305.147 152.845 304.876 148.929 304.432C147.99 304.326 147.02 304.161 146.141 303.837C141.594 302.166 136.784 302.279 132.086 301.625C129.531 301.271 126.991 300.744 124.451 300.278C124.135 300.217 123.849 300.022 123.421 299.841C123.564 299.149 123.691 298.517 123.827 297.884C125.894 298.283 127.81 298.69 129.734 299.013C131.275 299.269 132.846 299.374 134.386 299.63C137.002 300.067 139.595 300.639 142.218 301.023C145.382 301.489 148.553 302.023 151.74 302.166C155.738 302.347 159.474 303.611 163.322 304.439C164.569 304.71 165.839 304.876 167.102 305.109C167.771 305.229 168.425 305.418 169.094 305.53C169.988 305.673 170.897 305.771 172.213 305.944C172.273 306.14 172.468 306.712 172.769 307.615C171.897 307.404 171.363 307.352 170.897 307.156L170.882 307.148ZM174.58 303.476C172.626 297.809 170.815 292.09 168.958 286.385C168.244 284.18 167.53 281.983 166.877 279.763C166.606 278.845 166.396 277.851 168.034 277.196C169.131 279.921 170.274 282.532 171.236 285.204C172.581 288.914 173.851 292.654 175.061 296.409C175.94 299.119 176.662 301.88 177.489 304.605C177.684 305.252 178.067 305.839 178.278 306.479C178.661 307.638 178.624 307.675 177.075 308.3C175.813 306.938 175.159 305.192 174.573 303.483L174.58 303.476ZM169.725 276.82C170.311 276.843 170.807 276.745 171.191 276.903C173.37 277.806 178.406 282.683 179.578 285.068C177.684 286.175 175.94 287.198 174.039 288.304C172.596 284.459 171.191 280.726 169.718 276.813L169.725 276.82ZM191.596 369.551C190.942 367.173 190.295 364.885 189.687 362.59C187.462 354.221 185.282 345.838 183.013 337.477C181.547 332.081 179.856 326.745 178.436 321.334C177.489 317.729 176.835 314.049 176.031 310.279H178.188C179.232 314.381 180.51 318.429 180.856 322.757C181.059 325.24 181.818 327.701 182.502 330.124C183.892 335.046 185.44 339.922 186.853 344.844C187.439 346.869 187.823 348.953 188.341 351C189.769 356.607 191.784 362.055 192.866 367.76C193.046 368.723 193.054 369.363 191.596 369.543V369.551ZM192.084 299.555C191.303 295.89 190.619 292.21 189.845 288.545C189.469 286.762 188.958 285.008 188.454 283.051C189.807 282.547 190.942 282.118 192.25 281.629C195.136 290.765 198.315 299.721 200.261 309.301C197.187 310.482 194.053 311.686 190.912 312.898C187.808 314.095 184.711 315.306 181.397 316.593C180.766 314.501 180.104 312.454 179.533 310.377C179.24 309.323 179.991 308.744 180.773 308.262C182.75 307.058 184.749 305.877 186.718 304.657C188.229 303.724 189.702 302.746 191.205 301.813C192.084 301.271 192.295 300.571 192.077 299.555H192.084ZM204.26 335.467C204.087 335.497 203.899 335.422 203.591 335.377C204.417 333.518 205.642 332.48 207.664 332.66C209.874 332.856 211.151 334.195 211.933 336.348C211.016 337.206 210.099 338.064 208.979 339.11C208.446 338.304 207.957 337.695 207.597 337.003C206.672 335.227 206.379 335.076 204.252 335.467H204.26ZM206.507 338.079C200.389 339.922 195.015 343.113 189.431 346.139C189.221 345.717 189.04 345.439 188.943 345.138C188.837 344.822 188.815 344.483 188.74 344.084C189.506 343.67 190.198 343.256 190.919 342.91C195.399 340.78 199.878 338.651 204.605 337.1C205.425 336.829 206.221 336.483 206.507 338.086V338.079ZM207.364 330.824C207.867 330.192 208.145 329.838 208.498 329.394C208.724 329.936 208.919 330.41 209.22 331.155C208.536 331.035 208.078 330.952 207.364 330.824ZM206.973 325.579C206.635 324.156 205.597 322.96 206.123 321.266C206.544 322.659 206.965 324.051 207.386 325.451C207.243 325.496 207.108 325.541 206.965 325.586L206.973 325.579ZM206.484 330.734C204.207 331.501 202.155 333.729 202.253 336.242C197.668 338.327 193.039 340.434 188.161 342.662C186.042 335.693 183.997 328.739 182.411 321.62C182.787 321.357 183.035 321.086 183.343 320.996C187.109 319.874 190.333 317.624 193.813 315.923C195.586 315.058 197.368 314.215 199.171 313.41C199.765 313.146 200.434 313.033 201.276 312.8C203.027 318.828 204.733 324.698 206.484 330.741V330.734ZM181.938 319.43C181.998 319.016 181.938 318.512 182.163 318.211C182.427 317.85 182.893 317.579 183.321 317.406C187.176 315.886 191.039 314.396 194.903 312.906C195.136 312.815 195.421 312.86 195.819 313.184C191.363 315.381 186.906 317.579 182.449 319.769C182.276 319.656 182.103 319.536 181.938 319.423V319.43ZM205.034 318.648C204.628 317.436 204.154 316.239 203.839 315.005C202.771 310.859 201.779 306.689 200.705 302.543C200.299 300.962 199.773 299.412 199.277 297.862C197.969 293.775 196.624 289.704 195.331 285.61C194.925 284.316 194.632 282.984 194.331 281.659C194.158 280.914 194.309 280.282 195.166 280.214C199.217 292.94 202.08 305.801 205.44 318.535C205.304 318.572 205.169 318.61 205.034 318.648ZM194.67 366.593C194.369 365.562 194.143 364.795 193.933 364.027C192.648 359.429 191.37 354.838 190.085 350.24C189.416 347.854 189.394 347.742 191.505 346.711C195.361 344.837 198.811 342.188 202.952 340.878C204.305 340.449 205.627 339.945 206.995 339.463C207.709 340.75 206.913 341.465 206.266 342.09C207.236 343.52 208.07 344.919 209.07 346.184C209.904 347.23 210.949 348.118 211.888 349.081C212.316 349.518 212.722 349.977 213.136 350.428C213.887 351.256 214.053 352.152 213.767 353.265C213.526 354.199 213.587 355.215 213.489 356.411C210.678 358.029 207.694 359.895 204.207 360.821C201.328 361.589 199.134 363.696 196.669 365.269C196.06 365.653 195.459 366.059 194.655 366.586L194.67 366.593ZM195.015 368.144C196.887 366.894 198.585 365.668 200.382 364.591C201.885 363.688 203.478 362.928 205.064 362.161C207.386 361.032 209.731 359.948 212.068 358.857C213.549 358.165 215.015 357.457 216.533 356.863C216.818 356.75 217.547 357.073 217.622 357.322C217.72 357.645 217.472 358.315 217.172 358.473C210.918 361.912 204.831 365.668 198.164 368.309C197.345 368.633 196.571 369.069 195.511 369.573C195.301 368.971 195.136 368.482 195.015 368.136V368.144ZM214.872 354.71C214.857 354.492 215 354.274 215.135 353.883C215.465 354.199 215.646 354.372 215.834 354.545C215.661 354.71 215.503 354.921 215.293 355.011C215.202 355.049 214.879 354.831 214.872 354.718V354.71ZM195.812 371.538C203.035 367.775 210.002 364.147 217.435 360.272C216.939 362.289 216.563 363.861 216.164 365.419C215.826 366.736 215.458 368.046 215.12 369.363C213.692 374.902 212.219 380.433 210.858 385.994C210.167 388.809 210.317 391.669 210.858 394.709C208.401 396.146 205.906 397.614 203.177 399.217C200.72 389.975 198.292 380.854 195.819 371.538H195.812ZM203.47 400.722C203.944 400.406 204.305 400.112 204.711 399.887C206.559 398.878 208.408 397.87 210.28 396.899C210.708 396.681 211.234 396.636 211.7 396.515C212.174 397.772 211.527 398.306 210.798 398.713C208.611 399.932 206.402 401.113 204.019 402.4C203.876 401.979 203.681 401.377 203.463 400.714L203.47 400.722ZM204.064 403.853C205.034 403.521 205.838 403.378 206.507 403.002C208.641 401.813 210.783 400.632 212.797 399.254C213.782 398.577 214.669 398.592 215.676 398.818C219.193 399.601 222.696 400.444 226.22 401.173C227.273 401.392 228.392 401.316 229.475 401.347C230.279 401.369 231.083 401.347 232.143 401.347C231.496 404.124 230.955 406.494 230.392 408.865C230.316 409.196 230.114 409.489 230.031 409.82C229.46 412.018 227.994 413.357 226.055 414.456C224.544 415.314 223.342 416.706 221.869 417.647C219.178 419.363 216.382 420.906 213.632 422.531C213.045 422.877 212.489 423.269 211.918 423.637C211.362 423.991 210.806 424.345 209.979 424.872C207.957 417.685 206.003 410.761 204.057 403.845L204.064 403.853ZM228.205 414.667V416.511C226.709 417.316 225.439 418.053 224.124 418.708C223.395 419.069 222.605 419.325 221.839 419.619C222.696 418.768 223.492 417.843 224.439 417.113C225.544 416.255 226.792 415.578 228.212 414.674L228.205 414.667ZM221.636 419.732C219.674 421.688 217.247 422.885 214.729 423.946C216.871 422.283 218.923 420.469 221.636 419.732ZM210.648 428.529C213.429 427.099 216.217 425.722 218.945 424.232C221.673 422.742 224.063 420.65 227.348 419.604C227.25 420.341 227.205 420.913 227.092 421.47C226.762 423.073 226.446 424.676 226.04 426.256C225.845 427.039 225.604 427.867 225.153 428.507C224.244 429.778 224.093 431.103 224.454 432.555C225.01 434.79 223.958 438.222 222.38 440.043C221.32 441.262 220.554 442.67 219.276 443.784C217.254 445.545 217.382 445.688 214.255 446.628C213.045 440.563 211.865 434.64 210.648 428.522V428.529ZM218.374 461.198C218.201 460.611 217.976 459.851 217.713 458.97C219.599 458.142 221.358 457.254 223.199 456.63C223.823 456.419 224.672 456.878 225.679 457.081C223.079 458.549 220.794 459.836 218.374 461.198ZM229.099 454.455C228.573 455.591 226.273 455.877 225.116 454.809C224.169 453.936 223.372 454.094 222.335 454.304C220.351 454.711 218.336 454.974 216.142 455.328C215.398 452.995 214.887 450.594 214.624 448.171C216.127 447.697 215.759 449.601 217.044 449.398C217.021 448.811 216.991 448.209 216.961 447.554C217.84 446.779 218.615 446.869 219.351 447.825C219.644 448.201 220.05 448.48 220.531 448.908C221.072 447.516 219.794 447.388 219.509 446.538C220.824 445.319 222.184 444.047 223.755 442.587C224.109 442.911 224.702 443.249 225.003 443.761C225.769 445.093 226.318 445.424 227.709 444.935C228.671 444.596 229.587 444.054 230.79 444.973C231.241 448.178 230.519 451.384 229.106 454.447L229.099 454.455ZM245.874 463.674C245.679 463.922 245.611 464.058 245.506 464.133C245.017 464.486 244.521 464.825 243.86 465.292C243.108 461.13 242.387 457.081 241.613 452.777C241.996 452.589 242.627 452.28 243.424 451.889C244.965 455.862 244.995 459.918 245.881 463.681L245.874 463.674ZM243.401 449.45C239.493 451.354 235.607 453.251 231.639 455.177C232.135 454.018 232.684 453.574 234.706 452.513C236.028 451.821 237.344 451.106 238.621 450.338C239.831 449.616 240.989 448.811 242.266 447.983C242.071 447.591 241.928 446.974 241.718 446.952C240.38 446.794 240.372 445.695 240.215 444.83C239.831 442.692 239.576 440.525 239.253 438.237C239.884 438.064 240.448 437.914 241.259 437.695C241.973 441.609 242.657 445.409 243.394 449.443L243.401 449.45ZM232.752 443.287C232.436 441.496 232.797 439.652 233.563 437.831C234.788 438.087 235.961 438.327 237.043 438.546C237.667 441.646 238.245 444.491 238.862 447.554C237.329 449.112 235.209 450.233 232.767 451.226C232.767 450.572 232.744 450.075 232.767 449.571C232.887 447.479 233.12 445.409 232.744 443.287H232.752ZM246.986 403.604C245.611 409.045 244.641 414.531 244.378 420.168C244.19 424.247 243.567 428.303 243.131 432.367C243.086 432.774 242.973 433.172 242.883 433.571C242.575 434.941 242.048 435.964 240.327 435.882C239.471 435.844 238.591 436.213 237.727 436.378C236.284 436.657 234.939 436.499 233.556 435.867C232.406 435.347 231.068 435.197 229.805 434.963C228.678 434.753 227.528 434.647 226.138 434.459C226.378 433.345 226.581 432.375 226.792 431.404C227.926 426.279 229.031 421.154 230.211 416.037C230.617 414.283 231.233 412.582 231.662 410.836C232.225 408.518 232.759 406.193 233.195 403.853C233.541 402.009 233.533 401.956 235.382 401.474C236.562 401.166 237.704 400.707 238.892 400.428C239.456 400.293 240.079 400.406 240.883 400.406C240.515 401.971 240.132 403.341 239.884 404.726C238.772 410.859 236.87 416.774 234.946 422.689C234.24 424.872 234.044 427.227 233.721 429.515C233.556 430.651 233.661 430.666 235.029 431.584C235.164 431.193 235.397 430.839 235.39 430.486C235.352 427.385 235.795 424.367 236.885 421.463C239.005 415.826 240.252 409.948 241.725 404.131C241.988 403.085 242.296 402.046 242.665 400.714C244.236 401.166 245.686 401.58 247.257 402.031C247.167 402.558 247.122 403.092 246.994 403.604H246.986ZM252.322 372.478C251.894 373.577 251.759 374.608 253.081 375.218C251.736 380.734 252.172 386.408 250.729 392.113C249.609 390.773 250.376 389.569 250.293 388.184C248.249 387.274 246.054 386.431 243.529 385.874C244.438 381.088 246.084 376.482 245.716 371.733C247.114 370.785 248.993 371.718 250.008 369.935C249.519 369.716 249.121 369.551 248.73 369.363C248.512 369.257 248.136 369.122 248.136 368.994C248.091 367.271 247.137 367.993 246.4 368.362C245.31 368.911 244.303 369.656 243.176 370.1C240.53 371.146 237.832 372.057 234.713 373.186C233.932 375.632 233.037 378.551 232.06 381.449C231.669 382.608 231.136 383.722 230.647 384.85C230.362 385.505 229.805 385.708 229.137 385.648C227.573 385.498 226.235 385.957 224.92 386.837C223.913 387.507 222.696 387.861 221.576 388.365C220.779 388.726 220.005 389.117 219.494 390.449C220.291 390.246 220.787 390.209 221.2 390.005C222.898 389.17 224.544 388.207 226.281 387.447C226.995 387.131 227.926 386.98 228.671 387.146C229.362 387.296 229.933 387.974 230.685 388.515C231.759 386.717 233.706 387.334 235.337 387.01C239.501 386.198 243.446 387.138 247.287 388.726C248.008 389.027 248.317 389.441 248.226 390.291C247.896 393.475 247.648 396.673 247.339 400.158C246.723 400.022 246.069 400.007 245.528 399.751C242.236 398.201 238.952 398.344 235.638 399.661C235.134 399.864 234.578 400.09 234.067 400.052C231.151 399.841 228.227 399.631 225.319 399.254C223.026 398.961 220.749 398.464 218.479 398.005C216.826 397.667 215.045 397.493 214.255 395.597C214.188 395.439 213.97 395.319 213.797 395.221C212.534 394.483 212.181 393.324 212.166 391.94C212.136 389.05 212.564 386.228 213.218 383.428C214.361 378.514 215.488 373.6 216.645 368.693C216.818 367.963 217.096 367.263 217.299 366.541C217.983 364.057 218.652 361.566 219.366 358.917C220.313 359.542 221.343 360.212 222.553 361.009C221.824 363.553 221.012 366.202 220.306 368.881C219.855 370.589 219.464 372.328 219.186 374.074C218.532 378.175 217.217 382.164 217.111 386.356C217.051 388.591 217.134 388.764 218.93 391.217C219.058 390.562 219.253 390.209 219.156 389.983C218.209 387.868 218.472 385.641 218.787 383.518C219.374 379.545 220.23 375.617 221.05 371.681C221.162 371.146 221.591 370.492 222.057 370.258C225.341 368.603 226.544 365.449 227.874 362.386C228.227 361.581 228.49 360.746 228.828 359.843C230.767 360.023 232.631 360.189 234.781 360.392C234.443 361.604 234.202 362.575 233.901 363.523C233.308 365.427 234.037 367.24 236.036 368.723C237.426 369.754 239.425 369.626 240.974 368.618C242.717 367.481 243.845 365.999 244.393 363.982C244.769 362.612 245.348 361.295 245.859 359.895C247.43 360.008 248.91 360.121 250.609 360.242C250.774 363.094 252.398 365.254 254.307 367.331C253.63 369.077 252.969 370.785 252.307 372.493L252.322 372.478ZM238.366 381.524C238.862 379.402 239.613 377.332 239.997 375.203C240.342 373.291 241.342 372.35 243.183 372.14C243.77 374.284 242.792 382.104 241.53 385.121H237.877C238.043 383.88 238.103 382.683 238.366 381.524ZM236.179 385.182C234.954 385.385 233.834 385.573 232.368 385.814C232.894 384.248 233.285 382.999 233.729 381.757C234.525 379.515 235.344 377.272 236.179 375.045C236.487 374.217 236.975 373.63 238.246 373.961C237.562 377.679 236.878 381.374 236.179 385.182ZM225.612 358.413C226.168 358.789 226.671 359.12 227.258 359.512C226.641 362.838 224.965 365.479 222.387 367.632C223.041 364.433 223.154 361.062 225.612 358.405V358.413ZM235.224 364.403C235.495 363.086 236.058 361.83 236.487 360.55C239.072 360.355 241.552 360.174 244.243 359.971C243.544 362.085 242.905 364.042 242.251 366.014C241.162 366.48 240.012 367.03 238.824 367.459C236.389 368.339 234.698 366.939 235.224 364.403ZM248.587 357.849C249.324 355.463 250.06 353.1 250.789 350.744C250.962 350.722 251.135 350.699 251.308 350.677C251.616 352.882 251.917 355.094 252.217 357.231C251.11 357.899 249.9 358.107 248.587 357.856V357.849ZM254.765 365.878C252.826 364.652 252.157 362.522 252.758 359.414C253.863 359.301 254.915 359.196 256.14 359.068C256.163 361.581 255.847 363.779 254.757 365.878H254.765ZM217.036 266.713C217.653 266.548 218.096 266.375 218.554 266.322C223.357 265.742 228.174 265.216 232.992 265.893C235.322 266.224 237.336 267.217 238.576 269.505C239.734 271.65 240.853 273.855 242.094 275.91C243.281 277.874 243.987 279.936 244.769 281.99C245.348 283.495 245.648 285.151 245.806 286.762C246.16 290.291 246.34 293.836 246.588 297.38C246.656 298.321 246.55 299.194 247.888 299.555C248.467 299.713 248.82 300.819 249.203 301.534C249.692 302.445 250.256 303.205 251.135 303.837C251.992 304.454 252.653 305.395 253.277 306.275C254.848 308.503 256.2 310.904 257.907 313.018C260.702 316.48 261.063 320.424 260.74 324.6C260.507 327.596 260.297 330.583 260.131 333.578C259.846 338.764 259.402 343.926 258.109 348.976C257.583 351.023 257.102 353.077 256.614 355.132C256.246 356.69 255.81 357.254 253.81 356.9C253.367 354.409 252.916 351.843 252.413 349.021C253.48 349.021 254.209 349.096 254.923 348.998C255.592 348.901 256.238 348.622 256.96 348.404C256.727 348.035 256.666 347.839 256.599 347.839C254.089 347.809 251.578 347.734 249.076 347.809C247.903 347.847 246.626 347.892 245.648 349.104C247.061 349.886 248.317 348.434 249.842 349.156C248.985 352.001 248.114 354.898 247.257 357.721C240.433 358.804 233.774 358.721 227.122 357.961C227.062 357.796 227.002 357.63 226.942 357.465C227.43 357.073 227.896 356.652 228.415 356.291C230.038 355.169 231.128 353.649 231.91 351.851C232.556 350.353 233.187 348.81 234.067 347.448C235.713 344.897 236.735 342.075 237.802 339.275C238.787 336.686 240.019 334.165 240.372 331.358C240.56 329.853 240.59 329.853 238.869 328.98C238.02 331.14 237.178 333.27 236.998 335.588C236.803 338.079 236.089 340.367 234.863 342.556C233.338 345.288 232.12 348.193 230.572 350.91C229.783 352.302 228.648 353.529 227.506 354.673C226.258 355.914 224.792 356.93 223.5 358.127C222.763 358.812 222.245 358.706 221.598 358.059C220.2 356.659 218.72 355.342 217.374 353.898C216.6 353.07 216.074 352.024 215.368 351.128C214.308 349.796 213.369 348.261 212.031 347.275C210.227 345.935 209.393 344.047 208.235 342.308C209.754 339.877 212.121 338.425 214.09 336.37C214.594 336.649 215.09 336.852 215.503 337.168C216.315 337.793 217.029 338.56 217.878 339.11C219.464 340.141 220.554 341.33 220.133 343.429C220.05 343.851 220.456 344.37 221.042 344.859C221.2 344.483 221.455 344.122 221.493 343.73C221.719 341.352 221.839 338.959 222.109 336.589C222.23 335.52 222.545 334.451 222.914 333.428C223.658 331.343 223.928 329.198 223.951 327.001C223.958 326.12 224.109 325.232 224.319 324.375C224.717 322.719 225.258 321.093 225.634 319.438C226.093 317.443 227.693 316.48 229.174 315.464C230.166 314.787 231.346 314.381 232.504 313.831C231.369 312.597 230.099 313.944 228.821 313.658C231.384 310.55 234.255 307.909 237.629 305.771C238.764 306.622 237.486 308.465 238.997 309.135C240.703 306.885 239.531 304.07 236.697 303.416C237.494 300.759 238.291 298.095 239.14 295.243C239.05 294.874 238.749 294.234 238.772 293.61C238.982 289.027 236.667 285.482 232.496 283.834C231.278 283.352 230.745 282.653 230.564 281.509C230.407 280.5 230.249 279.484 230.211 278.468C230.151 276.64 229.798 276 227.979 275.684C225.702 275.285 223.395 275.052 221.095 274.856C219.682 274.736 218.224 274.961 216.653 274.013C216.773 271.673 216.901 269.197 217.029 266.683L217.036 266.713ZM219.84 338.154C220.245 334.941 220.681 331.727 221.08 328.506C221.192 327.611 221.328 326.783 222.65 326.271C222.575 328.341 222.41 330.056 221.906 331.757C221.395 333.511 221.042 335.302 220.614 337.078C220.508 337.507 220.418 337.936 220.313 338.395C220.027 338.259 219.817 338.192 219.825 338.154H219.84ZM220.035 304.861C218.712 303.694 217.359 302.543 215.924 301.527C215.308 301.09 214.443 301.015 213.414 300.691C214.331 300.044 215.015 299.389 215.826 299.021C217.066 298.456 217.412 297.493 217.592 296.274C217.78 295.01 218.149 293.775 218.509 292.248C220.726 292.744 222.748 293.188 224.89 293.67C224.702 295.115 224.522 296.379 224.364 297.651C224.048 300.142 225.273 301.218 227.701 300.624C228.415 300.451 229.152 300.353 229.888 300.33C230.151 300.33 230.422 300.654 230.782 300.887C229.918 301.993 228.671 301.918 227.641 302.272C226.762 302.58 226.168 302.949 226.544 303.995C225.469 304.951 225.341 305.305 226.153 305.771C227.701 306.674 228.37 308.029 228.678 309.685C228.738 310.016 228.919 310.317 229.121 310.828C228.468 311.506 227.784 312.221 226.964 313.064C225.582 311.438 223.921 311.619 222.222 311.987C221.688 312.1 221.14 312.13 220.599 312.176C217.307 312.416 215.308 309.88 216.285 306.531C217.45 306.847 218.615 307.171 219.794 307.495C221.238 306.313 221.298 305.997 220.027 304.876L220.035 304.861ZM222.891 290.682C221.929 290.427 220.666 290.095 219.389 289.764C219.501 288.244 220.043 287.138 221.2 286.558C223.184 285.565 225.183 284.549 227.648 284.24C226.033 286.423 224.552 288.432 222.883 290.69L222.891 290.682ZM230.595 285.181C230.256 287.446 229.926 289.681 229.572 292.097C228.129 291.743 226.777 291.412 225.281 291.051C226.363 288.146 228.994 285.211 230.595 285.181ZM230.114 303.19C229.881 304.989 228.956 305.598 227.603 304.906C227.22 304.71 226.949 304.304 226.634 303.98C227.776 303.724 228.926 303.461 230.114 303.19ZM231.97 292.27C231.256 291.051 231.97 289.915 231.955 288.808C231.947 287.672 232.068 286.543 232.15 285.144C233.045 285.625 233.736 286.009 234.488 286.415C233.631 288.41 232.834 290.261 231.97 292.278V292.27ZM235.675 288.523C236.299 290.404 237.577 291.698 236.787 293.489C234.307 293.715 233.616 292.902 234.458 290.81C234.721 290.141 235.134 289.531 235.675 288.53V288.523ZM214.887 270.852C214.962 271.123 215.052 271.304 215.06 271.492C215.082 272.034 215.06 272.576 215.06 273.027C212.767 274.683 212.301 275.443 210.595 274.322C211.046 274.006 211.482 273.765 211.835 273.434C212.159 273.133 212.392 272.734 212.64 272.41C211.678 271.199 210.573 272.064 209.385 272.019C209.987 270.566 209.588 268.881 211.287 268.03C212.888 268.625 213.248 269.874 212.925 271.643C213.684 271.334 214.255 271.108 214.872 270.86L214.887 270.852ZM213.03 265.818C213.519 266.435 213.902 267.135 214.331 267.797C214.233 267.902 214.135 268 214.037 268.106C213.278 267.549 212.587 266.721 211.738 266.503C210.843 266.269 209.806 266.615 208.574 266.736C209.941 264.192 211.55 263.936 213.03 265.825V265.818ZM204.342 271.974C204.733 272.395 204.908 272.967 204.868 273.69C204.458 273.138 204.282 272.566 204.342 271.974ZM204.192 275.849C204.65 276.361 205.004 276.768 205.372 277.159C206.725 278.596 207.371 278.483 208.356 276.557C208.063 276.241 207.754 275.91 207.176 275.285C207.935 275.217 208.423 275.067 208.867 275.165C209.844 275.375 210.783 275.752 211.76 275.985C212.136 276.075 212.67 276.098 212.948 275.902C214.481 274.803 216.074 275.684 217.63 275.684C219.05 275.684 220.471 275.917 221.884 276.083C223.77 276.308 225.649 276.594 227.536 276.835C228.475 276.956 228.731 277.52 228.768 278.393C228.828 279.815 228.979 281.238 229.114 282.848C226.536 282.239 224.221 283.074 221.914 284.135C220.441 284.812 219.103 285.55 218.532 287.175C218.239 288.003 217.675 288.086 216.908 287.996C214.413 287.695 211.911 287.431 209.408 287.168C209.152 287.138 208.882 287.221 208.641 287.251C208.138 289.373 208.431 289.982 210.295 290.411C212.474 290.916 214.676 291.322 216.969 291.796C217.059 293.67 216.518 295.386 215.706 296.883C215.248 297.734 214.022 298.185 213.106 298.765C212.309 299.269 211.377 299.623 211.144 300.947C212.023 301.429 212.948 301.933 213.97 302.49C213.722 303.024 213.474 303.551 213.263 304.01C213.339 304.236 213.339 304.432 213.429 304.484C214.323 305.034 214.609 305.673 214.466 306.84C213.977 310.813 217.187 313.967 221.162 313.628C221.703 313.583 222.252 313.553 222.793 313.515C224.362 313.4 225.434 313.949 226.01 315.163C225.086 317.767 224.326 320.145 223.379 322.448C223.011 323.351 222.38 324.284 221.613 324.856C220.381 325.774 219.937 326.926 219.779 328.341C219.524 330.651 219.261 332.961 218.953 335.264C218.87 335.896 218.607 336.513 218.404 337.206C216.367 336.634 215.443 334.587 213.511 334.986C212.745 334.015 212.008 333.074 211.437 332.344C211.272 331.403 211.219 330.643 211.009 329.936C209.799 325.819 208.551 321.718 207.326 317.602C206.822 315.908 206.289 314.223 205.845 312.507C205.184 309.933 204.65 307.322 203.959 304.755C202.381 298.893 200.742 293.053 199.119 287.206C198.57 285.234 198.014 283.262 197.443 281.298C197.27 280.711 197.06 280.139 196.804 279.379C199.036 277.874 201.667 277.001 204.207 275.857L204.192 275.849ZM216.405 289.659C216.39 289.802 216.375 289.945 216.36 290.08C215.24 289.855 214.12 289.636 212.91 289.395C214.338 289.175 215.503 289.263 216.405 289.659ZM202.508 272.365C202.892 273.223 203.125 273.757 203.425 274.419C201.84 275.157 200.374 275.834 198.908 276.519C195.947 277.896 192.994 279.296 190.017 280.636C189.318 280.952 188.484 281.471 187.808 280.162C192.625 277.61 197.435 275.052 202.508 272.365ZM188.454 288.206C189.018 291.503 189.506 294.814 190.07 298.11C190.265 299.277 190.1 300.074 189.003 300.88C186.192 302.949 183.118 304.514 180.157 306.381C179.916 305.974 179.668 305.749 179.653 305.508C179.39 301.602 177.459 298.231 176.196 294.648C175.677 293.173 175.189 291.691 174.603 289.96C178.563 287.717 182.509 285.49 186.493 283.24C187.808 284.745 188.169 286.476 188.462 288.206H188.454ZM185.726 281.464C184.133 282.427 182.584 283.36 180.953 284.338C180.578 283.872 180.239 283.533 180.006 283.142C178.353 280.395 175.963 278.378 173.445 276.489C173.017 276.173 172.483 276.007 171.995 275.774C171.213 275.405 170.432 275.037 169.462 274.57C170.83 272.215 172.198 270.408 174.392 269.34C175.407 268.843 176.384 268.662 177.256 269.423C178.631 270.619 180.202 271.74 181.186 273.223C182.862 275.759 184.155 278.551 185.726 281.456V281.464ZM227.641 215.863C226.333 217.609 224.988 219.324 223.71 221.1C223.034 222.034 222.523 223.087 221.876 224.043C220.328 226.353 218.787 228.671 217.164 230.921C215.007 233.902 212.805 236.852 210.558 239.764C206.65 244.836 202.704 249.886 198.743 254.921C195.158 259.481 191.528 264.012 187.913 268.557C186.906 269.821 185.869 271.071 184.847 272.335C184.704 272.215 184.568 272.094 184.426 271.974C185.049 271.025 185.613 270.025 186.312 269.137C188.026 266.939 189.807 264.787 191.558 262.612C193.016 260.806 194.504 259.022 195.91 257.178C198.871 253.273 202.268 249.728 204.583 245.295C205.883 242.804 207.957 240.697 209.806 238.522C211.58 236.445 213.384 234.428 214.714 231.998C217.299 227.249 220.328 222.786 223.785 218.617C224.928 217.24 226.288 215.96 226.694 213.763C227.22 214.448 227.543 214.854 227.874 215.283C227.791 215.509 227.754 215.72 227.641 215.87V215.863ZM228.423 211.031C228.25 210.979 228.077 210.918 227.904 210.866C227.701 209.097 227.506 207.329 227.303 205.553C227.453 205.47 227.603 205.387 227.746 205.304C228.039 205.538 228.55 205.741 228.595 206.019C228.821 207.419 228.956 208.834 229.031 210.249C229.046 210.497 228.633 210.768 228.415 211.024L228.423 211.031ZM228.22 202.994C227.618 202.482 227.791 201.24 228.498 200.164C229.009 199.389 229.016 199.382 230.888 199.901C230.963 200.857 231.045 201.842 231.136 202.881C230.091 203.333 229.152 203.784 228.22 202.986V202.994ZM230.422 212.898C231.03 212.484 231.579 211.897 232.248 211.693C236.87 210.309 241.515 208.999 246.16 207.682C246.34 207.63 246.558 207.682 246.776 207.682C241.793 210.783 236.276 212.205 230.414 212.905L230.422 212.898ZM282.325 189.207C281.664 193.745 282.182 198.305 281.979 202.858C281.754 207.75 281.949 212.664 281.889 217.571C281.874 219.061 281.634 220.544 281.476 222.237C280.544 222.387 279.559 222.56 278.567 222.711C275.606 223.163 272.637 223.607 269.676 224.036C268.872 224.148 268.053 224.246 267.241 224.276C262.882 224.427 258.523 224.525 254.224 225.413C252.954 225.676 252.653 225.473 252.495 224.103C252.142 221.048 251.886 217.992 251.586 214.93C251.421 213.236 251.218 211.551 251.097 209.85C251.03 208.864 251.496 208.299 252.751 208.488C253.134 211.137 253.517 213.801 253.908 216.472C253.968 216.472 254.028 216.472 254.089 216.465C253.953 213.748 253.818 211.039 253.668 208.081C255.937 206.915 258.673 207.103 261.221 206.516C263.806 205.921 266.414 205.417 269.037 204.868C269.333 204.226 269.045 202.808 268.173 200.616C263.596 201.767 259.004 202.919 254.231 204.123C254.074 200.021 253.923 196.108 253.765 191.999C254.239 191.916 254.81 191.773 255.389 191.72C258.094 191.48 260.8 191.246 263.513 191.036C264.257 190.975 265.009 191.021 265.76 190.983C266.437 190.945 267.181 191.021 267.767 190.757C270.232 189.681 272.855 189.952 275.411 189.711C276.147 189.643 276.891 189.613 277.853 189.546C278.003 190.99 278.259 192.466 278.289 193.933C278.379 198.576 278.319 203.22 278.462 207.863C278.522 209.812 278.462 211.754 279.003 213.725C279.394 215.125 278.808 216.803 278.65 218.497C275.831 219.136 273.223 220.1 270.413 220.295C269.007 220.393 267.534 220.536 266.234 221.033C264.099 221.861 261.95 221.642 259.785 221.59C258.072 221.545 256.418 221.793 254.697 222.38C255.186 223.268 255.907 222.974 256.516 222.952C258.688 222.862 260.868 222.749 263.04 222.636C263.513 222.613 264.017 222.636 264.453 222.5C267.451 221.529 270.525 221.138 273.674 221.093C275.621 221.063 277.568 220.732 279.507 220.498C280.326 220.401 280.363 219.761 280.333 219.106C280.183 216.051 279.95 213.003 279.92 209.948C279.882 205.44 280.048 200.932 280.01 196.424C279.988 194.038 279.755 191.66 279.552 189.282C279.469 188.319 278.409 187.589 277.432 187.95C275.185 188.785 272.87 188.56 270.57 188.71C269.375 188.793 268.226 189.433 267.023 189.553C262.829 189.982 258.628 190.298 254.427 190.659C253.758 190.72 253.081 190.757 252.277 190.81V204.318C251.345 204.153 251.518 203.4 251.466 202.873C251.097 199.344 250.774 195.807 250.436 192.277C250.346 191.344 250.263 190.411 250.158 189.342C260.732 188.071 270.961 185.316 281.596 185.008C282.28 186.407 282.513 187.8 282.302 189.237L282.325 189.207ZM257.508 205.086C260.627 204.251 263.739 203.423 267.166 202.505C266.091 204.115 261.634 205.289 257.508 205.086ZM218.517 294.814C219.441 294.415 220.103 293.858 220.561 293.994C221.486 294.272 222.312 294.897 223.131 295.454C223.244 295.529 223.169 296.199 223.004 296.312C222.711 296.507 222.207 296.635 221.906 296.507C220.929 296.101 219.997 295.574 218.517 294.814ZM219.351 297.222C219.802 297.945 220.245 298.343 220.26 298.765C220.283 299.344 220.027 300.029 219.223 299.954C218.577 299.894 217.998 299.487 218.179 298.787C218.299 298.306 218.81 297.922 219.351 297.23V297.222Z" fill="black"/>
<path d="M118.829 476.338C116.567 476.398 115.71 475.555 115.131 474.073C114.68 472.929 114.154 471.875 114.169 470.604C114.177 469.956 114.342 469.43 114.981 469.452C115.304 469.46 115.627 469.971 115.913 470.295C116.033 470.438 116.048 470.679 116.101 470.875C116.589 472.756 116.935 474.69 118.837 476.331L118.829 476.338Z" fill="black"/>
<path d="M124.217 464.63C124.488 467.129 123.744 469.326 123.428 471.637C122.173 471.072 121.594 469.258 121.88 467.234C122.173 465.142 122.383 464.879 124.217 464.63Z" fill="black"/>
<path d="M111.539 469.399C111.659 469.632 111.809 469.798 111.84 469.979C112.208 472.176 112.561 474.381 112.952 476.804C112.508 476.654 112.103 476.639 111.99 476.451C110.938 474.667 110.306 472.726 110.141 470.656C110.066 469.73 110.622 469.339 111.539 469.392V469.399Z" fill="black"/>
<path d="M4.51538 473.363C4.04189 473.408 3.77884 473.513 3.66611 473.423C2.32832 472.392 1.44898 471.045 0.99804 469.427C0.795116 468.712 0.870273 467.989 1.74209 467.809C2.69658 467.605 2.75671 468.253 2.88448 469.028C3.02728 469.938 3.45567 470.811 3.78636 471.692C3.98928 472.219 4.2373 472.73 4.51538 473.363Z" fill="black"/>
<path d="M320.151 470.355C319.347 472.341 318.626 474.133 317.866 476.021C316.416 473.29 317.393 470.731 320.151 470.355Z" fill="black"/>
<path d="M157.31 469.703C156.987 471.246 156.664 472.796 156.311 474.497C155.018 473.187 154.635 470.967 155.484 469.951C155.792 469.583 156.453 469.5 156.949 469.282C157.07 469.425 157.19 469.56 157.31 469.703Z" fill="black"/>
<path d="M91.7269 468.718C92.1854 468.846 92.6814 468.854 92.7565 469.034C93.3428 470.441 93.8388 471.879 93.8614 473.504C92.2755 472.662 91.5691 471.134 91.7269 468.718Z" fill="black"/>
<path d="M289.758 469.284C288.668 468.877 288.473 468.26 288.811 467.568C289.127 466.936 289.548 466.303 290.074 465.852C290.262 465.694 291.043 465.935 291.284 466.228C291.494 466.476 291.494 467.146 291.306 467.447C290.893 468.117 290.292 468.666 289.758 469.284Z" fill="black"/>
<path d="M147.156 470.182C146.833 471.876 146.563 473.298 146.239 474.999C144.856 474.058 145.292 472.944 145.413 471.981C145.586 470.626 145.638 470.634 147.156 470.175V470.182Z" fill="black"/>
<path d="M73.5558 476.887C72.4585 477.007 72.2556 476.3 72.1428 475.645C72.0151 474.93 71.9775 474.185 72.0677 473.47C72.0902 473.312 72.8268 473.252 73.3904 473.101C73.4506 474.524 73.5032 475.705 73.5558 476.887Z" fill="black"/>
<path d="M323.443 476.278C323.3 475.586 323.052 474.886 323.074 474.193C323.089 473.855 323.555 473.396 323.916 473.238C324.179 473.125 324.81 473.305 324.931 473.539C325.096 473.855 325.036 474.382 324.901 474.758C324.69 475.337 324.329 475.857 324.036 476.398L323.443 476.27V476.278Z" fill="black"/>
<path d="M139.895 468.813C140.218 470.379 140.474 471.613 140.745 472.93C139.534 472.802 139.256 472.117 139.099 471.236C138.963 470.439 138.693 469.671 139.888 468.821L139.895 468.813Z" fill="black"/>
<path d="M36.3525 472.527C37.0365 471.541 37.6001 470.721 38.2014 469.855C39.1784 470.164 39.3212 470.789 39.0056 471.579C38.5847 472.632 37.9308 472.903 36.3525 472.527Z" fill="black"/>
<path d="M285.091 466.523C284.302 467.088 283.843 467.637 283.302 467.735C282.633 467.863 282.468 467.216 282.543 466.629C282.618 466.011 282.761 465.319 283.588 465.507C284.024 465.605 284.385 466.026 285.084 466.516L285.091 466.523Z" fill="black"/>
<path d="M332.628 475.41C332.192 474.003 332.297 473.454 333.146 473.401C333.537 473.378 334.161 473.755 334.319 474.116C334.589 474.726 333.8 475.282 332.62 475.418L332.628 475.41Z" fill="black"/>
<path d="M63.679 472.758C64.1074 474.136 64.408 475.121 64.7913 476.363C62.8522 475.159 62.6268 474.504 63.679 472.758Z" fill="black"/>
<path d="M26.9287 474.116C27.0189 473.951 27.079 473.74 27.2143 473.619C27.8231 473.063 28.522 472.889 29.1759 473.461C29.3187 473.589 29.206 474.244 29.003 474.462C28.3492 475.155 27.778 475.027 26.9287 474.116Z" fill="black"/>
<path d="M18.6454 473.566C17.7811 474.183 17.1723 474.62 16.4508 475.139C16.2704 473.13 16.7364 472.769 18.6454 473.566Z" fill="black"/>
<path d="M349.311 477.685C349.228 477.038 349.176 476.602 349.078 475.804C349.8 476.112 350.266 476.323 351.115 476.692C350.318 477.136 349.897 477.369 349.311 477.693V477.685Z" fill="black"/>
<path d="M303.767 455.481C304.587 455.451 305.285 455.293 305.398 456.256C305.421 456.437 305.135 456.798 304.955 456.821C304.151 456.934 303.73 456.557 303.767 455.474V455.481Z" fill="black"/>
<path d="M363.907 480.35C363.554 480.651 363.343 480.974 363.118 480.997C362.908 481.012 362.487 480.696 362.487 480.53C362.487 480.274 362.742 479.853 362.953 479.808C363.171 479.763 363.464 480.079 363.907 480.357V480.35Z" fill="black"/>
</g>
<defs>
<clipPath id="clip0_1173_1290">
<rect width="363" height="481" fill="white" transform="translate(0.908691 -6.10352e-05)"/>
</clipPath>
</defs>
</svg>
