<svg width="430" height="447" viewBox="0 0 430 447" fill="none" xmlns="http://www.w3.org/2000/svg">
<path d="M169.47 251.987C162.452 246.32 150.292 248.31 150.292 248.31L149.876 248.39C148.473 248.661 147.55 247.954 147.108 246.27C146.607 244.359 146.089 242.447 145.571 240.535C144.179 235.38 142.731 230.058 141.58 224.763C140.842 221.395 139.965 218.005 139.125 214.725C137.728 209.35 136.292 203.792 135.446 198.195C134.131 189.511 132.335 180.732 130.607 172.237C129.883 168.705 129.167 165.164 128.469 161.624C128.368 161.092 128.268 160.56 128.176 160.02C127.872 158.314 127.558 156.563 126.994 154.888C124.403 147.053 121.519 138.609 117.927 128.302L117.701 127.658C116.332 123.716 114.915 119.654 113.225 115.767C111.618 112.074 109.836 108.376 108.11 104.807C107.284 103.087 106.449 101.377 105.631 99.6483C103.609 95.3781 101.587 91.108 99.5556 86.8284C94.5655 76.319 89.4183 65.4494 84.4576 54.7218C81.3101 47.9212 78.2192 40.9487 75.2213 34.2161C73.2102 29.6908 71.1991 25.1655 69.1626 20.6669C68.0292 18.1636 66.7827 15.6662 65.5819 13.2522C65.0318 12.1424 64.4728 11.0232 63.9227 9.91338C63.2764 6.71198 61.3333 4.19537 59.615 1.96777C58.9404 1.10079 58.2689 0.699085 57.6182 0.781444C56.9327 0.862831 56.391 1.46816 55.992 2.56086C54.6324 6.2906 54.4871 9.85324 55.5525 13.4585C56.4662 16.5669 57.338 19.7381 58.181 22.8081C59.235 26.6501 60.327 30.6209 61.5213 34.5033C64.5557 44.4206 66.8971 54.4646 68.4689 64.3596C69.2759 69.4537 70.2151 74.6152 71.1239 79.6027C71.6198 82.362 72.133 85.1219 72.6115 87.8808C73.1092 90.7132 73.5725 93.5629 74.0443 96.4037C75.0086 102.214 75.9953 108.225 77.2221 114.097C79.2812 123.987 81.5787 131.941 84.4665 139.145C87.4009 146.469 90.5407 153.652 93.7762 160.492C95.4396 163.995 97.2851 167.476 99.0667 170.836C100.601 173.725 102.191 176.706 103.641 179.683C106.229 184.991 108.802 190.425 111.284 195.675C113.693 200.777 116.183 206.036 118.698 211.196C125.093 224.298 131.711 237.562 138.108 250.381L138.776 251.704C140.023 254.202 140.009 256.071 138.721 258.152C136.463 261.811 135.592 265.91 136.209 270.023C136.502 272.001 137.03 273.959 137.587 276.018C137.818 276.9 138.067 277.801 138.299 278.756L137.468 279.627C136.637 280.498 135.705 281.475 134.772 282.453C133.55 283.696 132.337 284.949 131.124 286.201C128.053 289.364 124.88 292.633 121.669 295.737C119.927 297.413 118.079 299.049 116.291 300.624C113.805 302.817 111.242 305.072 108.911 307.517C104.891 311.729 101.027 316.229 97.2815 320.586C95.8865 322.217 94.4826 323.838 93.0872 325.451C91.4548 327.33 89.8407 329.247 88.2351 331.155L86.8072 332.857C84.8299 335.211 82.8436 337.555 80.8485 339.89C76.2164 345.344 71.4327 350.995 66.8317 356.642C59.5541 365.563 52.4963 374.572 45.8687 383.036C35.9949 395.653 27.4397 406.718 19.6794 416.857C15.1379 422.798 10.618 428.903 6.24082 434.802L2.0069 440.514C1.42596 441.292 0.888341 442.061 0.693347 442.959C0.543725 443.584 0.343949 445.33 1.0902 445.935C1.8807 446.568 3.34793 446.772 4.1645 446.366L4.71454 446.089C6.83788 445.044 9.02999 443.965 10.8001 442.372C16.4775 437.302 22.1569 431.967 27.6852 426.51C32.6022 421.656 37.5597 416.685 42.3471 411.874C48.0597 406.13 53.9678 400.199 59.8452 394.433C66.1051 388.302 72.5834 382.206 78.8403 376.303C81.3651 373.919 83.8904 371.554 86.4063 369.16C88.2763 367.388 90.1375 365.606 92.0075 363.833C96.8094 359.25 101.781 354.507 106.776 349.984C114.324 343.159 120.657 335.097 125.625 326.031L126.473 324.467C128.52 320.729 130.634 316.883 132.493 312.948C135.716 306.141 138.9 299.169 141.967 292.412L144.731 286.349C145.102 285.548 145.403 284.726 145.721 283.85C145.826 283.552 145.94 283.245 146.063 282.929C146.413 283.012 146.746 283.094 147.07 283.185C147.99 283.42 148.866 283.645 149.748 283.752C150.865 283.874 152.003 284.142 153.097 284.382C155.67 284.964 158.331 285.567 161.085 284.667C163.372 283.918 165.482 282.681 167.508 280.876C168.963 279.576 170.366 279.304 172.063 279.962C175.183 281.189 178.32 282.379 181.448 283.56C186.869 285.617 192.484 287.733 197.929 290.045C205.837 293.393 213.813 296.988 221.524 300.467C224.561 301.837 227.598 303.207 230.643 304.568C232.862 305.56 235.081 306.588 237.291 307.626C241.73 309.7 246.335 311.844 250.958 313.631C269.976 320.98 289.705 324.755 308.778 328.392C319.84 330.513 331.123 332.385 342.022 334.209C345.727 334.823 349.424 335.445 353.13 336.076C372.262 339.314 388.947 342.475 404.129 345.732C408.968 346.769 413.967 347.281 418.793 347.788C420.695 347.987 422.588 348.176 424.474 348.41L424.78 348.446C425.862 348.586 427.093 348.738 427.864 347.893L428.499 347.19L427.565 347.064C425.46 346.777 423.347 346.518 421.235 346.259C416.608 345.694 411.824 345.105 407.146 344.237C398.603 342.66 389.935 340.915 381.546 339.215C376.403 338.179 371.277 337.143 366.134 336.144C355.088 333.987 345.32 332.139 336.297 330.503C334.129 330.115 331.92 329.825 329.781 329.538C327.589 329.25 325.31 328.959 323.098 328.542C312.684 326.621 302.506 324.716 292.331 322.583C283.17 320.642 275.588 318.846 268.472 316.879C254.415 313.025 241.255 307.087 231.362 302.335C212.211 293.158 197.378 286.801 183.246 281.695C180.813 280.815 178.448 279.865 175.942 278.856C174.931 278.455 173.912 278.043 172.883 277.641L173.806 275.249L174.525 275.433C175.269 275.627 175.97 275.792 176.663 276.003C180.967 277.262 185.281 278.531 189.586 279.79C196.74 281.885 203.895 283.998 211.049 286.075C232.02 292.164 255.787 299.07 279.238 305.82C299.094 311.541 318.958 317.235 338.822 322.928L378.314 334.264C386.125 336.514 393.954 338.764 401.773 340.987C401.913 341.028 402.054 341.086 402.203 341.136C403.055 341.461 404.224 341.903 405.648 340.374L406.207 339.787L377.18 331.386C310.675 312.126 241.899 292.209 174.22 273.016L174.79 270.059C176.095 270.396 177.383 270.75 178.645 271.095C181.712 271.928 184.613 272.711 187.588 273.359C194.955 274.93 202.339 276.466 209.714 277.993C217.483 279.612 225.261 281.223 233.022 282.888C240.023 284.395 247.13 285.996 254.001 287.563C258.176 288.509 262.36 289.464 266.543 290.382C268.81 290.891 271.093 291.347 273.376 291.802C277.854 292.692 282.49 293.623 286.953 294.923C292.844 296.637 298.748 298.825 304.458 300.953C306.084 301.554 307.709 302.156 309.325 302.748C314.736 304.721 320.147 306.732 325.541 308.742C330.865 310.713 336.189 312.703 341.521 314.647L344.156 315.614C353.054 318.861 362.25 322.226 371.345 325.323C385.882 330.286 400.431 335.067 414.498 339.679C417.578 340.685 420.603 341.562 423.82 342.481C425.276 342.905 426.739 343.319 428.213 343.761L429.063 344.013L428.745 343.147C428.081 341.295 426.636 340.935 425.471 340.657C425.279 340.615 425.086 340.555 424.902 340.504C423.736 340.171 422.58 339.866 421.415 339.569C419.549 339.089 417.613 338.588 415.761 337.962C404.474 334.184 391.088 329.664 377.391 324.907C367.54 321.478 357.712 317.895 348.208 314.44C340.584 311.657 332.951 308.865 325.335 306.054C318.29 303.47 311.262 300.886 304.218 298.319C302.707 297.767 301.196 297.196 299.676 296.616C295.476 295.022 291.135 293.369 286.754 292.227C278.572 290.085 270.18 288.275 262.06 286.536L257.064 285.459C249.582 283.838 241.953 282.241 234.586 280.705C230.667 279.885 226.747 279.066 222.827 278.246L215.067 276.617C205.985 274.706 196.58 272.722 187.348 270.725C184.215 270.036 181.061 269.238 178.013 268.46C176.717 268.132 175.429 267.796 174.151 267.487C173.895 265.956 173.992 264.636 174.492 263.4C174.424 260.023 173.513 255.264 169.391 251.939L169.47 251.987ZM140.376 249.578C140.113 249.142 139.868 248.743 139.648 248.317C138.493 245.968 137.32 243.619 136.156 241.279C133.204 235.341 130.16 229.218 127.249 223.144C124.199 216.766 121.183 210.37 118.168 203.975C114.389 195.943 110.464 187.634 106.543 179.508C104.936 176.171 103.156 172.865 101.43 169.652C99.7041 166.421 97.9145 163.087 96.2986 159.741C92.6991 152.271 89.5007 145.523 86.8876 138.518C82.4369 126.619 79.1445 113.712 76.5365 97.9138L75.3257 90.6012C73.5299 79.7604 71.6901 68.5535 69.7509 57.5445C68.9079 52.7505 67.7283 48.0657 66.3875 42.8566C64.3527 34.9647 62.2053 27.0971 60.1574 19.7248C59.5736 17.6198 58.8767 15.5207 58.1991 13.4951L57.6536 11.8746C56.7021 8.99317 56.8083 6.29603 57.972 3.42747C59.6034 4.62189 60.5773 6.31811 61.5239 7.96797C62.0243 8.83013 62.5345 9.73818 63.1469 10.5578L63.1737 10.5859C63.3899 11.2213 63.606 11.8567 63.8048 12.4916C64.3324 14.0934 64.8789 15.7504 65.5713 17.3294L68.3317 23.6176C74.1566 36.8685 80.1757 50.5717 86.2571 63.9847C90.514 73.3701 94.9817 82.8344 99.3113 91.9938C100.81 95.164 102.317 98.3435 103.807 101.523C104.708 103.427 105.625 105.313 106.552 107.208C108.112 110.389 109.717 113.672 111.14 116.959C113.367 122.101 115.285 127.418 116.869 131.94C119.363 139.051 121.775 146.023 123.875 153.023C124.825 156.187 125.474 159.498 126.12 162.699C126.35 163.901 126.598 165.102 126.846 166.304C127.111 167.525 127.316 168.753 127.53 169.99C127.683 170.879 127.845 171.778 128.015 172.667L128.606 175.739C130.567 185.882 132.528 196.025 134.524 206.169C134.954 208.379 135.54 210.576 136.032 212.514C138.45 221.767 140.876 231.028 143.328 240.282C143.76 241.908 143.946 243.045 142.833 244.136L135.856 223.848C130.72 208.901 125.585 194.009 120.458 179.108C118.036 172.09 115.606 165.081 113.158 158.072C108.073 143.446 102.801 128.322 97.8305 113.389C89.4046 88.0804 76.3972 50.8595 73.8026 47.358L72.7123 45.8775L72.9842 47.6911C73.0672 48.2224 73.1131 48.6616 73.1665 49.0553C73.2541 49.7692 73.3116 50.3272 73.4991 50.8615C79.484 68.0483 85.4773 85.2261 91.4711 102.422C97.5491 119.849 103.618 137.266 109.696 154.692C113.279 164.971 116.827 175.25 120.393 185.528C123.856 195.539 127.319 205.532 130.8 215.544C133.971 224.662 137.249 233.893 140.541 242.978C141.402 245.355 141.978 247.524 140.371 249.696C140.353 249.677 140.335 249.64 140.325 249.613L140.376 249.578ZM142.059 287.389C140.386 291.11 138.663 294.957 136.833 298.656C132.552 307.34 127.682 317.185 122.595 326.677C117.549 336.088 110.185 343.638 102.983 350.399C91.3439 361.324 76.0245 375.77 60.809 390.537C54.2589 396.896 47.7149 403.493 41.3739 409.858C36.6971 414.573 31.8588 419.438 27.0606 424.167C22.4494 428.719 17.6278 433.211 12.9678 437.551L9.55786 440.732C7.78909 442.38 5.71252 443.9 2.6073 443.97C2.64075 443.916 2.66527 443.853 2.69025 443.808C3.0136 443.169 3.31197 442.575 3.70774 442.048C7.17738 437.437 10.6466 432.808 14.1073 428.187C22.9228 416.399 32.0501 404.209 41.2399 392.423C51.1806 379.699 61.6019 367.052 71.694 354.806L76.1023 349.455C86.3126 337.067 94.7301 327.101 102.589 318.096C106.844 313.224 111.469 308.545 116.364 304.201C124.4 297.053 131.48 289.97 138.021 282.552C138.579 281.91 139.173 281.307 139.818 280.649C140.055 280.401 140.293 280.152 140.547 279.885L142.871 281.628L141.683 282.817C136.259 288.277 131.259 293.986 127.073 298.842C121.23 305.64 115.388 312.457 109.563 319.274C105.446 324.077 101.337 328.89 97.2196 333.692C93.7277 337.765 90.2268 341.827 86.726 345.89C83.5465 349.579 80.3669 353.267 77.2048 356.956C69.9841 365.368 62.7807 373.78 55.56 382.191L39.8083 400.556C29.9074 412.095 20.007 423.653 10.1329 435.22C9.64243 435.79 9.34726 436.512 9.06013 437.206C8.96158 437.441 8.85456 437.684 8.75602 437.918C8.7221 437.954 8.68821 437.99 8.66323 438.035L7.82973 439.152L8.32271 439.029C7.02168 440.242 5.71171 441.447 4.41068 442.66C4.49114 442.745 4.58053 442.838 4.66098 442.923L8.4004 439.003L9.40377 438.757L9.49474 438.568C9.49474 438.568 9.53622 438.487 9.55272 438.451C9.69549 438.245 9.85569 438.04 9.99846 437.834C10.4188 437.244 10.8475 436.644 11.3214 436.11C12.2104 435.122 13.1168 434.135 14.0236 433.166C15.2183 431.876 16.4643 430.551 17.6313 429.197C23.3402 422.614 29.0397 416.003 34.7218 409.391L95.2681 339.148C99.2089 334.587 103.158 330.016 107.09 325.445C114.387 316.954 121.693 308.454 128.963 299.934C132.699 295.549 136.459 291.047 140.092 286.696L141.655 284.832C141.908 284.529 142.073 284.169 142.23 283.817C142.296 283.673 142.362 283.529 142.437 283.394L143.225 281.856L144.183 282.576C143.457 284.162 142.748 285.747 142.04 287.333L142.059 287.389ZM169.795 273.888C168.042 278.593 162.909 283.167 156.521 282.817C151.894 282.57 147.599 280.664 143.339 278.795C142.433 278.396 141.645 277.854 140.983 277.161C139.356 275.455 138.473 272.859 138.288 269.305C138.015 263.989 140.329 259.82 142.89 256.087C147.642 251.238 157.602 246.888 164.937 252.354C167.384 254.173 169.36 256.618 171.332 260.266C171.697 260.952 171.863 262.014 171.747 262.905C171.613 263.832 171.506 264.768 171.399 265.705C171.078 268.496 170.741 271.379 169.795 273.907L169.795 273.888Z" fill="black"/>
</svg>
